<?xml version="1.0" encoding="UTF-8"?>
<svg version="1.1" xmlns="http://www.w3.org/2000/svg" width="223" height="226">
<path d="M0 0 C73.59 0 147.18 0 223 0 C223 74.58 223 149.16 223 226 C149.41 226 75.82 226 0 226 C0 151.42 0 76.84 0 0 Z " fill="#3D3D3D" transform="translate(0,0)"/>
<path d="M0 0 C23.76 0 47.52 0 72 0 C72 11.16221634 66.89877614 18.5901007 62 29 C44.84 29 27.68 29 10 29 C2.1539961 12.1871345 2.1539961 12.1871345 1 4 C0.67 2.68 0.34 1.36 0 0 Z " fill="#737373" transform="translate(75,19)"/>
<path d="M0 0 C13.86 0 27.72 0 42 0 C41.67 2.31 41.34 4.62 41 7 C41 7.66 41 8.32 41 9 C28.46 9 15.92 9 3 9 C3 8.34 3 7.68 3 7 C2.34 7 1.68 7 1 7 C1 6.34 1 5.68 1 5 C0.34 4.67 -0.32 4.34 -1 4 C-0.67 2.68 -0.34 1.36 0 0 Z " fill="#000000" transform="translate(106,0)"/>
</svg>
