<?xml version="1.0" standalone="no"?>
<!DOCTYPE svg PUBLIC "-//W3C//DTD SVG 20010904//EN"
 "http://www.w3.org/TR/2001/REC-SVG-20010904/DTD/svg10.dtd">
<svg version="1.0" xmlns="http://www.w3.org/2000/svg"
 width="500.000000pt" height="500.000000pt" viewBox="0 0 500.000000 500.000000"
 preserveAspectRatio="xMidYMid meet">

<g transform="translate(0.000000,500.000000) scale(0.100000,-0.100000)"
fill="#000000" stroke="none">
<path d="M3316 3943 c-6 -14 -5 -15 5 -6 7 7 10 15 7 18 -3 3 -9 -2 -12 -12z"/>
<path d="M2663 3912 c0 -12 9 -18 23 -18 13 0 21 3 18 7 -2 4 2 10 8 13 7 3 4
5 -7 3 -11 -1 -25 2 -32 6 -8 5 -11 1 -10 -11z"/>
<path d="M2552 3849 c-112 -13 -188 -36 -297 -89 -167 -83 -326 -235 -376
-359 -18 -46 -23 -86 -29 -231 -5 -96 -13 -192 -19 -212 -11 -34 -24 -56 -104
-172 -31 -44 -35 -87 -11 -107 9 -8 42 -27 73 -44 68 -37 88 -69 71 -121 -10
-30 -9 -39 8 -68 11 -18 23 -48 27 -65 4 -17 23 -50 42 -73 34 -41 35 -45 29
-101 -7 -73 9 -112 61 -147 34 -23 46 -25 152 -25 77 -1 125 -5 143 -14 15 -8
35 -10 45 -7 14 6 6 13 -37 31 -30 13 -49 24 -41 25 21 0 217 98 231 115 6 8
-13 1 -43 -16 -31 -16 -105 -47 -167 -69 -89 -32 -125 -40 -181 -40 -65 0 -72
2 -107 34 l-37 34 3 76 c3 73 2 76 -31 113 -19 21 -37 54 -41 74 -4 21 -14 43
-22 50 -13 11 -15 25 -9 72 8 73 -6 97 -76 132 -56 29 -89 58 -89 79 0 8 21
45 47 83 25 37 60 97 77 133 30 64 30 67 31 230 l0 165 37 75 c20 41 45 86 56
99 19 23 22 24 65 12 59 -17 109 -59 147 -126 46 -80 60 -163 60 -362 0 -198
9 -255 53 -321 29 -42 46 -54 166 -114 161 -80 223 -135 278 -246 30 -60 37
-86 41 -152 3 -53 9 -80 17 -80 14 0 116 33 167 54 l37 16 -14 46 c-7 25 -28
70 -47 100 -62 103 -263 281 -398 353 -125 67 -152 129 -186 421 -39 342 -92
449 -245 494 l-40 12 58 43 c79 59 221 127 318 151 137 35 327 27 482 -21 189
-59 361 -189 456 -346 119 -197 127 -469 23 -729 -45 -110 -116 -235 -129
-227 -6 3 -7 1 -3 -6 4 -6 -8 -34 -30 -63 -26 -38 -38 -65 -41 -98 -4 -49 -2
-47 35 42 8 21 23 45 33 54 11 10 19 21 19 25 0 4 20 41 44 82 75 126 134 278
155 401 15 84 13 240 -3 311 -11 45 -12 62 -3 67 8 5 7 8 -3 8 -9 0 -24 25
-39 63 -13 34 -27 64 -30 67 -18 15 -88 127 -85 138 1 7 0 8 -3 2 -3 -6 -26 9
-53 34 -185 173 -461 263 -718 235z"/>
<path d="M3105 3818 c8 -20 -10 -25 -18 -5 -4 7 -6 8 -6 1 -1 -6 6 -17 14 -24
12 -10 16 -9 21 5 4 9 1 22 -5 28 -9 9 -11 8 -6 -5z"/>
<path d="M2850 3726 c0 -2 8 -10 18 -17 15 -13 16 -12 3 4 -13 16 -21 21 -21
13z"/>
<path d="M2890 3696 c0 -8 4 -17 8 -20 4 -2 8 4 8 15 0 10 -4 19 -8 19 -4 0
-8 -6 -8 -14z"/>
<path d="M2516 3665 c4 -8 8 -15 10 -15 2 0 4 7 4 15 0 8 -4 15 -10 15 -5 0
-7 -7 -4 -15z"/>
<path d="M3308 3649 c9 -24 57 -50 49 -26 -2 6 -11 11 -21 9 -9 -2 -16 4 -16
12 0 8 -4 18 -10 21 -6 4 -7 -2 -2 -16z"/>
<path d="M2300 3565 c0 -7 30 -13 34 -7 3 4 -4 9 -15 9 -10 1 -19 0 -19 -2z"/>
<path d="M2730 3537 c0 -4 -4 -6 -9 -3 -5 4 -6 -4 -3 -16 5 -19 7 -20 10 -5 2
9 8 17 14 17 6 0 8 -10 4 -25 -5 -19 -3 -23 9 -19 8 3 12 10 9 15 -3 5 1 9 8
9 10 0 10 2 -1 9 -7 5 -11 13 -8 18 3 5 -3 9 -14 9 -10 0 -19 -4 -19 -9z"/>
<path d="M3080 3545 c0 -5 5 -17 10 -25 5 -8 10 -10 10 -5 0 6 -5 17 -10 25
-5 8 -10 11 -10 5z"/>
<path d="M3447 3476 c-15 -22 -15 -24 1 -19 10 2 18 13 18 24 0 24 0 24 -19
-5z"/>
<path d="M2450 3345 c0 -8 7 -11 20 -8 14 4 20 0 20 -10 0 -8 -4 -17 -10 -19
-5 -1 -6 -9 -1 -16 5 -8 11 -1 18 23 8 26 8 35 0 36 -7 0 -20 2 -29 4 -10 2
-18 -3 -18 -10z"/>
<path d="M2971 3336 c-8 -10 -9 -16 -1 -21 6 -3 7 -11 4 -17 -4 -7 -2 -8 5 -4
8 6 9 12 2 20 -7 9 -7 16 1 24 7 7 9 12 6 12 -3 0 -11 -6 -17 -14z"/>
<path d="M3251 3332 c12 -20 12 -24 -1 -32 -13 -8 -12 -10 3 -10 9 0 17 5 17
10 0 6 7 10 15 10 8 0 15 -7 15 -15 0 -8 -8 -15 -19 -15 -10 0 -25 -8 -32 -17
-13 -17 -12 -17 5 -3 16 13 20 12 32 -5 13 -17 14 -17 14 -1 0 9 4 14 10 11 6
-3 7 1 4 9 -4 10 -1 16 7 16 12 0 12 2 0 9 -7 5 -11 13 -8 19 4 5 -4 8 -16 8
-12 -1 -31 5 -41 13 -18 15 -18 15 -5 -7z"/>
<path d="M2936 3315 c-3 -8 -1 -15 5 -15 6 0 7 -5 3 -12 -4 -6 -3 -8 4 -5 5 4
8 16 5 27 -6 24 -9 25 -17 5z"/>
<path d="M2757 3299 c-3 -12 0 -28 9 -36 12 -13 14 -12 14 1 0 9 -4 16 -9 16
-5 0 -7 9 -4 20 3 11 3 20 0 20 -2 0 -7 -10 -10 -21z"/>
<path d="M2781 3224 c0 -11 3 -14 6 -6 3 7 2 16 -1 19 -3 4 -6 -2 -5 -13z"/>
<path d="M3133 3175 c-10 -10 -9 -15 4 -19 20 -8 22 -5 14 15 -5 14 -8 15 -18
4z"/>
<path d="M2806 3114 c-3 -8 0 -11 10 -7 7 3 14 0 14 -5 0 -6 -8 -13 -17 -15
-10 -3 -6 -4 9 -4 21 1 25 4 18 18 -5 9 -7 18 -5 21 3 3 -2 5 -10 5 -8 0 -16
-6 -19 -13z"/>
<path d="M2540 3104 c0 -8 5 -12 10 -9 6 3 10 10 10 16 0 5 -4 9 -10 9 -5 0
-10 -7 -10 -16z"/>
<path d="M3330 2994 c0 -8 5 -12 10 -9 6 4 8 11 5 16 -9 14 -15 11 -15 -7z"/>
<path d="M2987 2989 c7 -7 15 -10 18 -7 3 3 -2 9 -12 12 -14 6 -15 5 -6 -5z"/>
<path d="M3028 2975 c-3 -15 0 -26 9 -29 9 -4 11 -1 7 5 -4 6 -2 14 4 18 6 4
5 10 -3 18 -10 9 -14 7 -17 -12z"/>
<path d="M2996 2953 c-6 -14 -5 -15 5 -6 7 7 10 15 7 18 -3 3 -9 -2 -12 -12z"/>
<path d="M2650 2905 c-10 -12 -16 -13 -26 -4 -11 9 -14 8 -14 -5 0 -10 4 -15
9 -11 16 9 24 -15 11 -30 -10 -12 -9 -15 4 -15 9 0 16 4 16 10 0 5 8 7 18 3
14 -5 13 -3 -3 10 -17 14 -18 19 -7 36 14 24 10 28 -8 6z"/>
<path d="M2900 2845 c-7 -8 -15 -13 -19 -11 -3 2 -13 -3 -21 -12 -13 -14 -12
-15 3 -9 11 4 20 1 23 -8 4 -10 19 -14 43 -14 33 2 34 2 6 6 -43 6 -52 19 -30
43 10 11 16 20 13 20 -3 0 -11 -7 -18 -15z"/>
<path d="M3210 2798 c-7 -18 -9 -19 -9 -5 -1 21 -8 22 -26 3 -12 -12 -12 -15
0 -20 8 -3 13 -11 11 -18 -1 -7 -1 -10 1 -5 8 13 21 8 26 -10 4 -14 5 -12 6 5
0 12 6 22 12 22 8 0 8 4 -1 15 -6 8 -9 19 -5 25 3 5 4 10 0 10 -3 0 -10 -10
-15 -22z"/>
<path d="M2836 2796 c10 -8 21 -12 24 -10 5 6 -21 24 -34 24 -6 0 -1 -6 10
-14z"/>
<path d="M2873 2765 c0 -8 6 -16 14 -19 8 -3 13 2 13 14 0 11 -6 20 -13 20 -8
0 -14 -7 -14 -15z"/>
<path d="M3535 2740 c-3 -5 -1 -10 4 -10 6 0 11 5 11 10 0 6 -2 10 -4 10 -3 0
-8 -4 -11 -10z"/>
<path d="M2817 2564 c3 -8 15 -19 27 -25 19 -9 20 -9 3 4 -13 11 -15 16 -5 19
7 3 3 7 -9 10 -16 4 -20 2 -16 -8z"/>
<path d="M2991 2457 c-1 -10 -5 -16 -10 -13 -4 3 -6 -6 -3 -21 4 -23 6 -24 17
-10 15 21 25 22 25 2 0 -8 5 -15 10 -15 11 0 13 11 4 34 -3 9 -12 16 -19 16
-7 0 -16 6 -18 13 -3 7 -6 4 -6 -6z"/>
<path d="M3299 2369 c-17 -14 -19 -19 -7 -15 10 3 20 1 23 -4 4 -6 -1 -10 -9
-10 -9 0 -16 -4 -16 -10 0 -15 26 -12 40 5 10 12 10 15 0 15 -7 0 -10 8 -7 20
6 25 5 25 -24 -1z"/>
<path d="M1736 1599 c-71 -17 -98 -59 -97 -152 0 -101 57 -151 164 -144 48 3
63 8 87 33 16 16 32 41 35 57 7 26 5 27 -29 27 -27 0 -39 -6 -52 -25 -22 -33
-58 -42 -89 -21 -22 14 -25 24 -25 74 0 31 4 63 9 71 8 13 91 34 89 22 -1 -3
4 -18 10 -33 10 -24 17 -28 52 -28 43 0 48 8 31 53 -21 54 -106 85 -185 66z"/>
<path d="M2320 1600 c-39 -9 -80 -51 -80 -82 0 -29 39 -80 57 -74 8 3 12 2 9
-3 -3 -5 20 -15 52 -23 45 -11 57 -18 57 -33 0 -14 -9 -21 -33 -26 -27 -5 -36
-2 -51 17 -24 30 -91 35 -91 7 1 -25 33 -61 65 -73 71 -27 207 5 191 46 -3 9
-1 12 4 9 6 -4 10 6 10 22 0 26 1 25 21 -14 48 -97 220 -98 267 0 17 35 9 47
-34 47 -27 0 -36 -5 -44 -25 -11 -29 -45 -40 -82 -26 -30 11 -45 60 -34 113 9
44 24 58 60 58 36 0 56 -15 56 -42 0 -15 8 -18 45 -18 33 0 45 4 45 14 0 8 -5
18 -10 21 -6 4 -8 11 -5 16 10 16 -41 57 -85 69 -51 14 -117 1 -112 -21 3 -11
1 -11 -9 -2 -25 25 -79 -60 -79 -125 l0 -25 -19 21 c-10 13 -45 28 -82 38 -75
19 -87 27 -69 49 16 19 54 19 70 0 7 -9 29 -15 51 -15 31 0 39 4 39 19 0 24
-25 45 -45 37 -8 -3 -14 0 -12 6 4 22 -62 32 -123 18z m285 -49 c3 -5 2 -12
-3 -15 -5 -3 -9 1 -9 9 0 17 3 19 12 6z"/>
<path d="M3076 1600 c-40 -12 -76 -49 -76 -77 0 -20 5 -23 36 -23 24 0 34 4
32 12 -13 37 64 50 86 15 9 -15 -1 -29 -71 -93 -68 -62 -83 -81 -83 -105 l0
-29 120 0 120 0 0 35 0 35 -72 0 c-69 0 -71 1 -50 16 12 8 20 20 17 25 -3 5 1
6 9 3 19 -7 83 55 92 90 7 29 -13 69 -44 85 -28 15 -85 21 -116 11z"/>
<path d="M1520 1449 l0 -150 43 3 42 3 2 148 2 147 -44 0 -45 0 0 -151z"/>
<path d="M1953 1452 c2 -114 5 -146 16 -150 9 -3 11 0 6 7 -5 10 -3 10 12 0
23 -14 135 -5 173 14 62 31 88 125 56 202 -15 36 -59 71 -76 60 -5 -3 -10 -1
-10 5 0 7 -31 10 -89 9 l-90 -1 2 -146z m150 77 c31 -17 37 -28 37 -72 0 -48
-14 -75 -46 -87 -46 -18 -54 -5 -54 86 0 78 1 84 21 84 11 0 30 -5 42 -11z"/>
<path d="M2937 1565 c-9 -20 -17 -54 -17 -75 0 -39 1 -40 35 -40 33 0 35 2 35
35 0 24 -5 35 -15 35 -18 0 -19 2 -1 45 14 32 14 35 -3 35 -10 0 -24 -15 -34
-35z m10 -50 c0 -8 -4 -12 -9 -9 -5 3 -6 10 -3 15 9 13 12 11 12 -6z"/>
<path d="M3269 1573 c-1 -16 -3 -52 -5 -81 -2 -48 -1 -52 23 -58 13 -4 34 -2
46 4 12 6 29 12 37 15 17 4 50 -29 50 -50 0 -20 -37 -53 -60 -53 -11 0 -25 9
-32 20 -16 25 -78 29 -78 4 0 -8 4 -12 10 -9 5 3 7 0 4 -9 -9 -23 53 -56 104
-56 57 0 100 24 118 65 37 89 -51 161 -147 121 -13 -6 -16 -2 -12 18 5 24 9
26 67 27 33 1 65 1 69 0 4 -1 7 15 5 34 l-2 35 -98 0 -98 0 -1 -27z"/>
<path d="M2430 1134 c0 -34 52 -86 82 -82 56 8 6 108 -53 108 -25 0 -29 -4
-29 -26z m40 -3 c14 -26 13 -31 -4 -25 -9 3 -12 12 -9 21 4 11 2 14 -5 9 -7
-4 -12 -2 -12 3 0 18 19 12 30 -8z m40 -16 c0 -23 -27 -38 -47 -25 -15 10 -15
11 -1 6 9 -2 22 2 28 10 9 10 9 14 1 14 -6 0 -11 4 -11 10 0 5 7 7 15 4 8 -4
15 -12 15 -19z"/>
<path d="M2670 1032 c-13 -14 -12 -15 3 -9 9 3 17 3 17 -1 0 -5 7 -17 15 -28
13 -15 13 -13 -1 16 -9 19 -17 36 -18 36 0 1 -8 -5 -16 -14z"/>
<path d="M2270 1015 c14 -17 13 -18 -5 -12 l-20 7 20 -16 c20 -16 19 -16 -5
-11 -22 5 -23 4 -8 -6 21 -16 5 -49 -20 -41 -14 5 -14 4 1 -6 23 -15 36 -4 52
43 11 31 10 36 -9 47 -20 12 -20 12 -6 -5z"/>
<path d="M2346 1017 c-19 -14 -18 -15 5 -38 19 -19 25 -37 29 -94 5 -76 23
-95 28 -30 4 62 11 85 27 85 12 0 30 -67 25 -95 -5 -22 1 -35 15 -35 10 0 15
16 17 62 2 50 6 63 21 66 15 3 17 -5 17 -55 0 -66 13 -98 30 -73 5 8 10 38 10
66 0 53 10 69 45 76 22 4 30 35 15 58 -13 22 -256 28 -284 7z m83 -60 c13 4
14 3 1 -5 -8 -6 -17 -9 -21 -6 -4 2 -10 -6 -12 -18 -3 -15 -4 -11 -4 9 1 20 5
29 10 24 5 -5 17 -7 26 -4z m122 -4 c6 -6 8 -17 4 -23 -6 -9 -10 -8 -17 4 -11
19 -54 22 -61 4 -3 -10 -7 -10 -17 -1 -7 6 -10 15 -7 21 8 12 85 8 98 -5z"/>
<path d="M2678 995 c11 -21 12 -27 12 -49 0 -19 31 -29 44 -15 8 8 6 10 -9 7
-12 -2 -19 2 -17 10 1 6 -3 12 -9 12 -5 0 -8 4 -5 9 3 4 -1 17 -10 27 -15 18
-15 18 -6 -1z"/>
<path d="M2220 914 c0 -12 28 -40 33 -33 1 2 9 13 17 24 13 19 13 19 -5 3 -17
-16 -19 -16 -31 0 -8 9 -14 12 -14 6z"/>
<path d="M2699 903 c13 -26 22 -28 39 -11 17 17 15 33 -3 18 -12 -10 -18 -10
-32 1 -15 13 -15 12 -4 -8z"/>
<path d="M2267 877 c-4 -10 -7 -26 -7 -35 1 -15 2 -15 11 1 6 10 9 25 7 35 -3
16 -4 15 -11 -1z"/>
<path d="M2680 879 c0 -9 7 -22 15 -29 19 -16 19 0 0 26 -12 16 -14 16 -15 3z"/>
<path d="M2220 860 c0 -5 7 -10 16 -10 8 0 12 5 9 10 -3 6 -10 10 -16 10 -5 0
-9 -4 -9 -10z"/>
<path d="M2720 860 c0 -5 4 -10 9 -10 6 0 13 5 16 10 3 6 -1 10 -9 10 -9 0
-16 -4 -16 -10z"/>
<path d="M2291 825 c0 -35 2 -37 11 -19 7 15 7 28 -1 40 -9 16 -10 12 -10 -21z"/>
<path d="M2662 810 c2 -46 10 -56 35 -41 16 10 16 10 -3 11 -17 0 -20 5 -16
29 2 16 -1 32 -7 35 -7 5 -10 -6 -9 -34z"/>
<path d="M2230 816 c0 -2 7 -6 15 -10 8 -3 15 -1 15 4 0 6 -7 10 -15 10 -8 0
-15 -2 -15 -4z"/>
<path d="M2708 813 c7 -3 16 -2 19 1 4 3 -2 6 -13 5 -11 0 -14 -3 -6 -6z"/>
<path d="M2330 805 c-1 -5 -1 -18 0 -28 1 -10 -7 -25 -17 -33 -16 -12 -15 -13
17 -14 19 0 30 4 23 8 -6 4 -13 23 -16 42 -2 19 -5 31 -7 25z"/>
<path d="M2625 797 c-4 -10 -5 -21 -1 -24 10 -10 18 4 13 24 -4 17 -4 17 -12
0z"/>
<path d="M2268 768 c9 -9 15 -9 24 0 9 9 7 12 -12 12 -19 0 -21 -3 -12 -12z"/>
<path d="M2360 766 c0 -8 5 -18 10 -21 6 -3 10 3 10 14 0 12 -4 21 -10 21 -5
0 -10 -6 -10 -14z"/>
<path d="M2585 768 c-13 -46 -11 -67 8 -72 11 -3 28 -1 36 4 13 7 10 9 -10 10
-25 0 -26 3 -22 35 4 33 -3 49 -12 23z"/>
<path d="M2414 716 c6 -32 5 -36 -14 -36 -11 0 -20 -4 -20 -10 0 -5 11 -10 25
-10 22 0 25 4 25 39 0 22 -5 43 -11 47 -9 5 -10 -3 -5 -30z"/>
<path d="M2548 744 c-5 -4 -8 -19 -8 -33 1 -23 2 -24 11 -8 11 19 9 53 -3 41z"/>
<path d="M2615 740 c-4 -6 7 -10 27 -10 25 0 29 3 18 10 -19 13 -37 13 -45 0z"/>
<path d="M2370 721 c0 -6 -10 -11 -22 -11 -20 -1 -21 -2 -6 -10 9 -6 26 -6 38
-2 20 7 20 9 6 21 -11 9 -16 10 -16 2z"/>
<path d="M2540 670 c0 -5 12 -10 26 -10 14 0 23 4 19 10 -3 6 -15 10 -26 10
-10 0 -19 -4 -19 -10z"/>
<path d="M2467 658 c2 -5 10 -8 18 -8 8 0 16 3 18 8 3 4 -5 7 -18 7 -13 0 -21
-3 -18 -7z"/>
</g>
</svg>
